<svg t="1633071924745" class="icon" viewBox="0 0 1024 1024" version="1.1" xmlns="http://www.w3.org/2000/svg" p-id="8735" width="200" height="200"><path d="M512 1024c-56.096-89.344-97.184-137.728-123.296-145.184C201.216 825.248 64 652.672 64 448 64 200.576 264.576 0 512 0s448 200.576 448 448c0 203.168-135.232 374.72-320.608 429.632-26.88 7.968-69.376 56.768-127.392 146.368z m307.488-713.504C805.28 186.336 747.2 95.84 675.968 96l-329.632 0.8c-71.296 0.192-128.896 90.944-142.624 215.168-50.048 30.912-75.872 93.856-75.712 166.72 0.128 54.08 14.624 102.56 42.56 136.544L170.816 736l129.536-0.32-0.16-70.72 424.448-1.056 0.16 70.72 129.536-0.32-0.288-120.768c27.776-34.08 42.08-82.688 41.952-136.768-0.16-72.704-26.272-135.584-76.512-166.272zM346.464 142.912L676.16 142.08c45.888-0.096 86.08 64.352 101.312 151.808a155.776 155.776 0 0 0-22.016-2.784c0-0.192 0.192-0.576 0.032-0.576l-86.304 0.224-71.904 0.16-318.72 0.8c-11.584 0-22.528 1.312-32.864 3.52 14.912-87.584 54.912-152.224 100.8-152.32zM260.864 539.04c-28.352 0.032-51.328-27.008-51.392-60.576-0.064-33.504 22.784-60.736 51.104-60.8 28.256-0.064 51.2 27.04 51.296 60.544 0.064 33.6-22.752 60.736-51.008 60.8z m399.872-11.456L363.52 528c-46.336 0.096-47.36-82.752-0.192-82.88l297.28-0.736c43.328-0.096 43.52 83.136 0.16 83.232z m102.688 10.176c-28.288 0.096-51.264-26.976-51.328-60.544-0.096-33.504 22.784-60.736 51.04-60.8 28.288-0.096 51.264 27.04 51.36 60.544 0 33.632-22.816 60.8-51.072 60.8z" p-id="8736" fill="#e74c3c"></path></svg>